<svg id="Layer_1" data-name="Layer 1" xmlns="http://www.w3.org/2000/svg" viewBox="0 0 318 194">
  <g style="isolation: isolate">
    <path d="M117.77,74.83c-.23-.46-.3-1.72,0-2s.21-.46.06-.93-.56-.33-.86-.42a1.45,1.45,0,0,0-1-.19,5.91,5.91,0,0,0-1,0c-.14,0-.39-.15-.61-.18-.68.12-1.44.25-2.22.31s-1.88.19-2.87.22a10,10,0,0,1-2.09.22,12.11,12.11,0,0,1-2.15.3c-.29,0-.63.1-1,.1s-.49.08-.39.63l0,.21c.06,0,.15,0,0,.27a21.34,21.34,0,0,1-2.19.45c-.54.17-1.11.2-1.71.37.16.12.26.31.41.36a1.17,1.17,0,0,1,.17,1,3.36,3.36,0,0,1-.14.81.75.75,0,0,1-.44.36h-.07l.19-.17c-.07,0-.24-.11-.44-.07H99.5a1.1,1.1,0,0,0-.33-.22,3.88,3.88,0,0,0-1.18.55c-.07,0-.12.1-.18.18v-.07l-.06.08.08.06c-.23.32-.25,1-.42,1.28-.09-.13-.17-.19-.31-.16s-.23-.1-.33-.3h.07l0-.07h-.07l-.12-.69-.08-1.69a.85.85,0,0,1,.08-.37c.17-.24.4-.56.38-.7a1.71,1.71,0,0,1,.15-1.17l0-.2c0-.65-.08-1.27.33-1.77h0l-1.28.49c-.19.5-.35,1.21-.58,1.9a6.94,6.94,0,0,1-.72,1.19.52.52,0,0,0-.09.3,3,3,0,0,0,0,1.12,1,1,0,0,1-.92,1.23,6,6,0,0,1-1.13,0,.81.81,0,0,0-.51.3c-.16.32-.36.42-.59.32a6.93,6.93,0,0,1-.75-.22c.06-.09.13-.1.26-.19-.42.07-.57,0-.75.2a8.84,8.84,0,0,1-1.26.15,2.84,2.84,0,0,1-.8-.15,4.94,4.94,0,0,0,1-.52c-.09-.13-.24-.17-.5-.06a10.1,10.1,0,0,0-1.38.24c-.18-.18,0-.56.23-.68l1-.38c.14,0,.25-.19.38-.28a.07.07,0,0,1-.08-.06l-1.49.4c-.35.06-.82.21-1.23.28a3,3,0,0,0-.79,0c-.88.22-1.71.37-2.52.58a2.89,2.89,0,0,1-.68.19c-.46.22-.91.51-1.37.3a5.9,5.9,0,0,0-1,.18c-.27,0-.45.22-.73.27a5,5,0,0,0-1.39.17,5.42,5.42,0,0,1-2,.64,8.18,8.18,0,0,0-1.77.44c-.41.14-.91.09-1.24.22-1,.25-1.9.54-2.85.78L68.46,81a5.14,5.14,0,0,1-.94.3,9.51,9.51,0,0,0-3.47,1.31c-.58.32-1,1.31-1.55,1.69l-.38.28a3.13,3.13,0,0,0-1.73,2.72,6.25,6.25,0,0,0-.07,1.22,4.47,4.47,0,0,0,0,1.42,11.08,11.08,0,0,0,1.19,3.21,11.47,11.47,0,0,0,1.43,2.09c.44.5,1.09,1,1.6,1.43.47.28,1,.69,1.46,1,.74.58,1.33,1.12,2.08,1.77.4.29.89.63,1.35.41a1,1,0,0,1,1.16.15.63.63,0,0,1,.22,0l-.11-.62c-.35-1.22-1.35-2-2.09-3a36.09,36.09,0,0,0-3-2.6A6.14,6.14,0,0,1,64,91.9l-.36-.44A3.78,3.78,0,0,0,63,90.29a1.81,1.81,0,0,1,.24-1.89,3.68,3.68,0,0,1,1.47-1,6.69,6.69,0,0,1,1.91-.9c1.28-.37,2.55-.87,3.76-1.22.89-.23,1.77-.45,2.67-.61a14.85,14.85,0,0,0,1.85-.39c.41-.07.85-.43,1.4-.52A7.69,7.69,0,0,1,78,83.7a3.84,3.84,0,0,0,.9-.15,6.74,6.74,0,0,1,1.87-.68c.14,0,.33-.13.54-.16a1.74,1.74,0,0,0,1.16-.28c.6-.24,1.29-.36,1.88-.61l.86-.36a1.36,1.36,0,0,1,.9-.16,1.53,1.53,0,0,1,.24,1,16,16,0,0,1-.55,2.58c-.14.81-.36,1.62-.5,2.43a2.89,2.89,0,0,0-.16.74l-.74,3.11A21.49,21.49,0,0,0,84,93.68l-.75,3a5.43,5.43,0,0,0-.18,1,16.07,16.07,0,0,0-.18,1.81,13.73,13.73,0,0,0-.38,1.91c0,.07-.06.08,0,.15s-.08-.06-.15-.05c.09.06.09.06.1.13a1.44,1.44,0,0,1-1,1,2,2,0,0,0-.68.19c-.41.5-.92.44-1.53.62-.87.29-1.78.38-2.66.6-.21,0-.41.14-.68.19-.79.35-1.8.31-2.18,1.37-.65.33-.41.93-.39,1.42s0,.63.62.74c.22,0,.43,0-.53.24a14.82,14.82,0,0,1,2.14,0c.39.15.53.19.8.08a2.1,2.1,0,0,1,.89-.23c1,.18,2-.34,3-.45a1.08,1.08,0,0,1,.5,0,1.87,1.87,0,0,1,.1.62c0,.14,0,.22,0,.36a18.16,18.16,0,0,1-.28,2c-.31.69-.6,1.45-.88,2.28a11.63,11.63,0,0,1-.5,2.08,7.09,7.09,0,0,1-.15,1.59,13.14,13.14,0,0,1-.42,2.06c-.09.73-.11,1.44-.13,2.15a6,6,0,0,0-.14,1.24,3,3,0,0,0-.23,1.1,1,1,0,0,0-.1.66,18.3,18.3,0,0,0-.16,2c-.15.8-.38,1.55-.52,2.36a9.61,9.61,0,0,1-.69,1.75c-.11.59-.37,1.13.4,1.5,0,.57.34.72.69,1.08a3.43,3.43,0,0,0,1.48,1.17,2.44,2.44,0,0,0,.91.34c.81.14,1.45.6,1.24.21a8.05,8.05,0,0,0,.64-.82c.48-.51.38-1.13.41-1.78a5.05,5.05,0,0,1,0-2.7,16.55,16.55,0,0,0,.64-3.74,24.44,24.44,0,0,0,.22-3.23c0-.07.11-.16.17-.24s0-.22,0-.43a3.24,3.24,0,0,1,0-1.07.82.82,0,0,0,.49-.87,2.66,2.66,0,0,1,.17-1.09,3,3,0,0,0,.31-1.9c-.15,0-.09-.13,0-.21-.15-.9.65-1.6.43-2.49l0-.07c.46-.64.34-1.33.58-2,0-.21-.14-.41-.18-.61a.9.9,0,0,1,.25-1,1.5,1.5,0,0,0,.5-.8c.15-.38.08-.79.28-1.25a1.78,1.78,0,0,1,1.21-1.63c.15,0,.19-.11.39-.21s.58-.32.84-.08a.66.66,0,0,1,.15.9,11.36,11.36,0,0,1-.37,1.56,5,5,0,0,0-.19,1.31,7.21,7.21,0,0,0-.08,1.22l-.39,2.27c0,.29-.12.52-.1.66s0,.56.31.51c.15-.74.37-1.55.51-2.36s.24-1.89.44-2.78c.24-1.1.54-2.22.85-3.34,0-.21.27-.47.4-.57l1.13-.41a4.22,4.22,0,0,0,1.31-.22c.21,0,.4-.15.68-.19s.47-.16.75-.2c.77-.07,1.51-.27,2.29-.33a1.13,1.13,0,0,0,.59-.24,1.51,1.51,0,0,1,1.09-.26,6.45,6.45,0,0,0,.94.05,2,2,0,0,0,.65-.33c.4-.14.86-.36,1.2-.06s.92,0,1.4-.11a1.11,1.11,0,0,0,.09-.29,5.5,5.5,0,0,0-.3-1,1.17,1.17,0,0,1-.1-1c0-.22.06-.44-.24-.53A13.62,13.62,0,0,0,97,99.81c-.9.16-1.86.32-2.89.57l-1.31.23c-.34.06-.77.06-1.11.12-.56,0-.76-.29-.72-.87.3-1.12.45-2.35.68-3.45.18-.61.28-1.26.46-1.86a8.16,8.16,0,0,1,.36-1.2,4.79,4.79,0,0,1,.42-1.28,2.93,2.93,0,0,0,.4-2.2.61.61,0,0,1,.15-.38,14.38,14.38,0,0,1,.5-1.58c.14-.88.35-1.7.55-2.58.06-.51.31-1.12.36-1.63a2.9,2.9,0,0,0,.19-1,4.45,4.45,0,0,1,.21-.81c.2-.89.35-1.7,1.71-1.65a14.37,14.37,0,0,0,1.68-.15l1.89-.54,2.31-.61a2,2,0,0,1,.91-.09c.56,0-.31.27.26.24a11.41,11.41,0,0,0,1.54-.12,1.86,1.86,0,0,1,.35,0c.42-.07.77-.07,1.12-.13a3.27,3.27,0,0,1,1.21,0,23.71,23.71,0,0,1,2.44-.28c.34-.06.71,0,1.12-.06a3.31,3.31,0,0,1,2,0c.38.14.73.08,1,.19a2.23,2.23,0,0,0,2.53-.58,3.23,3.23,0,0,1,.79-.78c.32-.2.49-.44.28-.83C118.16,75.9,117.93,75.37,117.77,74.83ZM80.19,120c-.06.08-.26.19-.34.13-.24-.17-.46-.2-.63-.39s-.21-.39-.44-.49c.13,0,.19-.1.26-.12s.09.13.17.19a.61.61,0,0,1,.09-.3C79.79,118.92,80.26,119.62,80.19,120ZM82,116.77H81.9v.07c-.12.09-.32.2-.4.14a.52.52,0,0,1-.3-.09v-.07c-.08-.06-.16-.11-.1-.19-.13-.34.3-.7.8-.71a2.47,2.47,0,0,1,.41.35A1.21,1.21,0,0,1,82,116.77Zm.59-3.16c-.11.16-.06.44-.14.81A.55.55,0,0,1,82,115c-.43,0-.49-.35-.37-.51a3.28,3.28,0,0,1,.14-.8.62.62,0,0,0,.16-.74c-.33-.66.14-1.23-.69-1.52.08-.37.39-.63,0-.93,0,0,.08-.37.15-.38s.37.08.38.15a.12.12,0,0,0,0,.2v.07c.13.34.21.82.36,1.29C81.78,112.4,83.24,113,82.56,113.61Zm11.5-32.9a4.67,4.67,0,0,1,0,1c0,.58-.16,1.17-.26,1.82s-.4,1.35-.63,2.1a4.4,4.4,0,0,1-.15.74,23.74,23.74,0,0,1-.84,4.19c-.24,1.47-.65,2.82-.84,4.2-.42,1.64-.6,3.09-.9,4.63a2.26,2.26,0,0,1-1.29,2,.84.84,0,0,1-1.1-.59,5.42,5.42,0,0,1,.41-2.2,4.06,4.06,0,0,0,.33-1.34A9.77,9.77,0,0,0,89,95.58a1.35,1.35,0,0,0,0-1.06.92.92,0,0,1,.37-1.13,1.2,1.2,0,0,0,.37-1.13A18.08,18.08,0,0,1,90.05,90a7.58,7.58,0,0,0,.69-2.18L91.35,86a3.59,3.59,0,0,0,.08-.79A12.24,12.24,0,0,1,92,83.13a1.78,1.78,0,0,0,.57-1.66,1.15,1.15,0,0,0,.08-1.58c-.12-.26.13-.45.56-.45l.2,0c.11.19.17.11.22,0,.52.12.65.46.46,1A.47.47,0,0,0,94.06,80.71Zm3.75-1.29a2.47,2.47,0,0,1-.74.2,1,1,0,0,1-.44-.06c.1-.23.13-.45.26-.54a.67.67,0,0,1,.52-.31c.19-.1.54-.16.5.06C98.14,78.87,98,79.32,97.81,79.42Z" fill="#fdb3d4"/>
    <path d="M87.83,114.47a2.3,2.3,0,0,0-.49.87.36.36,0,0,1-.09.3c-.6,1.1-.51,2.43-.73,3.61-.1.23,0,.58-.14.81s-.08.79-.16,1.16c-.14.81-.44,1.57-.59,2.3,0,.29-.25.62-.26,1-.16.74-.1,1.51-.26,2.18L84.66,129c-.06.44-.2.89-.27,1.33a.69.69,0,0,1-.19.53,9.74,9.74,0,0,1-.3,2.75c-.09.31-.15.62-.21.94a4,4,0,0,1,1,.26,16.94,16.94,0,0,0,.51-2.57c0-.71.13-1.3.15-2a6.73,6.73,0,0,0,.33-2.62c-.09-.12,0-.35.07-.44,0-.57.22-1.17.26-1.75a14.17,14.17,0,0,1,.23-1.53,16.39,16.39,0,0,1,.43-1.63,18.22,18.22,0,0,1,.57-2.87,1.1,1.1,0,0,1,0-.36,18.41,18.41,0,0,1,.59-3.58c.09-.3.11-.59.19-1C88,114.52,87.9,114.46,87.83,114.47Z" fill="#fdb3d4"/>
    <path d="M97.14,75.92c-.09-.06,0-.08,0-.28.08.06.14,0,.22,0,.1.2,0,.21,0,.29S97,76.08,97.14,75.92Z" fill="#fdb3d4"/>
    <path d="M103.75,73.07c0,.14,0,.22-.24.25S103.54,73.1,103.75,73.07Z" fill="#fdb3d4"/>
    <path d="M158.65,93.47a5,5,0,0,1,.08,1.69c0,.29.09.56-.32.63-.14,0-.16.31-.13.52s.16.11.3.09.14,0,.15,0,0,.14,0,.15c-.89.23-.4,1-.65,1.6-.11.17-.26.55.28.81.23.1-.11.59-.19,1-.15,1.58-.95,2.72-1.3,4.34a10,10,0,0,1-.76,2.19c-.18.6-.77,3-1,3.52a8.9,8.9,0,0,1-.76,1.77c-1.28,2.42-4.11,7.81-6.93,10-.92.87-2.2,1.23-3.06,2a2.76,2.76,0,0,1-1.9.54c-.71,0-1.41,0-2.06,0a3.72,3.72,0,0,1-1.66-.56,8.41,8.41,0,0,1-2.51-2.2,10.77,10.77,0,0,1-2-3.49c-.84-2-.62-4-.69-6.07a33.7,33.7,0,0,1,1-5.71c.28-1.26.55-2.58.89-3.92l-.74.7a13.35,13.35,0,0,1-3.4,3.71,7.79,7.79,0,0,1-3.27,2.06,3.75,3.75,0,0,1-1.8.67,1,1,0,0,0-.93.8,35.36,35.36,0,0,1-1.81,4.72,29.45,29.45,0,0,0-1.76,4.63c0,.43-.37.71-.66,1.11-.77,1.27-1.68,2.57-2.46,3.84a7.4,7.4,0,0,1-2.84,3.26,18.35,18.35,0,0,0-1.47,1.39,2.68,2.68,0,0,1-1.88.61c-.72,0-1.26.15-1.83.11-3.1-.25-4.64-2.18-6-4.58a7.19,7.19,0,0,1-.73-3.78,18.79,18.79,0,0,1,.14-4.57c.28-1.61.22-3.24.64-4.87a22.47,22.47,0,0,0,.79-3.69,7.29,7.29,0,0,1,1.09-2.32A35.36,35.36,0,0,1,110,99.49a20.93,20.93,0,0,1,2.87-4.34,9.31,9.31,0,0,1,5.58-3.09c.62-.11,1.24-.64,1.78,0,0,.07.14,0,.28,0,1-.39,1.31-.23,1.83.74.11.2.26.24.27.31.51.48.52,1,0,1.36-.47.15-.62.53-.84.86-.48.51-.88.29-1-.18s-.54-.26-.92-.41a.71.71,0,0,0-.7.48,1.58,1.58,0,0,1-.84.93,1.8,1.8,0,0,0-.73,1.12c-.08.72-1.55,1.26-1.87,1.89-.76,1.76-1.65,3.62-2.49,5.33-.22.39-.35.84-.57,1.23l-.72,1.55c0,.07,0,.07,0,.15-.51,1.15-1,2.31-1.45,3.52l-1.73,6a38.32,38.32,0,0,0-.63,5c0,.65.77,1.15.52,1.76a4.26,4.26,0,0,0,.59,3c.32.59.83.29,1.24.15a24.08,24.08,0,0,0,4.66-3.44,42.19,42.19,0,0,0,5.79-9.24c.72-1.55,1.3-3.14,2-4.62a1.57,1.57,0,0,0-.18-1.46,9.74,9.74,0,0,1-.49-4.89,21.78,21.78,0,0,1,1-4.93,1.13,1.13,0,0,0,.05-.51c-.28-1.65.7-3,1.37-4.43a7.29,7.29,0,0,1,2.65-2.73,2.72,2.72,0,0,1,2.11-.15c.39.21.23.53.22.88a11.46,11.46,0,0,1-.71,2.9c-.07.37-.18.6.24,1s.21.82-.23,1.11c-.06.08-.27.11-.45.29s-.78,0-.72.34.57,0,.77-.07.42,0,.39.22c-.42.43.06,1.2-.66,1.53a7.83,7.83,0,0,1-1.53,3.47c-.11.16.13.33.09.55-.22,1.17.37,1.71.08,2.9-.09.3-.27.47,0,.64a.48.48,0,0,0,.66.1,12.88,12.88,0,0,0,3.48-2.45,52,52,0,0,0,4.86-5.6,14.64,14.64,0,0,0,1.49-2l.81-.28c.48-.87,1-1.74,1.53-2.62.83-1.35,1.76-2.57,2.73-4,.28-.4.92-.44,1.28-.79a10.45,10.45,0,0,1,4.48-2,15.73,15.73,0,0,0,2.35-.77,2.75,2.75,0,0,1,1.49,0,12.84,12.84,0,0,1,3.21.08,3.56,3.56,0,0,1,1.49.38c.47.28.4.72.54,1.12s-.18.17-.39.21c-.57,0-1.05-.32-1.62-.36a8.78,8.78,0,0,0-3.72,1.07,10.56,10.56,0,0,0-2.94,2.71l-2,2.12c-.34.48-.62,1-.89,1.43-.49.87-1.22,1.56-1.71,2.43a23.51,23.51,0,0,1-1.08,2.39,28.32,28.32,0,0,1-1.33,2.57,5.39,5.39,0,0,0-.26,1,34.52,34.52,0,0,0-1.1,3.89,16.47,16.47,0,0,1-.89,3.07c0,.06-.13.09-.1.23a7,7,0,0,1-.3,2.39c-.13.88-.27,1.75-.33,2.62a20,20,0,0,0,.36,4.13,3.68,3.68,0,0,0,.47.63,8.24,8.24,0,0,0,.87,1.76c.82,1.43,1,1.39,2.5.92a13.79,13.79,0,0,0,2.8-1.48c3.16-2.25,5.33-7.81,7-10.24.51-.73,1.85-5.3,2.3-6a15.22,15.22,0,0,0-.09-8.73,10.07,10.07,0,0,0-.63-1.95c-.25-.66-.55-.75-1.06-.38a1.26,1.26,0,0,1-.73.27c.15-.39.56-.46.73-.7a3.39,3.39,0,0,1,1.4-1.38,2.77,2.77,0,0,1,2.43-.28A4.81,4.81,0,0,0,158,92a1.43,1.43,0,0,1,.46.63c0,.14.13.34,0,.36s-.47-.27-.4.14S158.37,93.52,158.65,93.47ZM117.74,94a.25.25,0,0,1,.22,0l0-.13a.25.25,0,0,0-.15,0C117.72,93.88,117.66,94,117.74,94Zm8.45,6.92c.14,0,.22,0,.23.1.17-.24.47-.58.38-.7S126,101,126.19,100.94Zm.77,1.15a.18.18,0,0,1,.24.17c0,.15-.09.3-.16.31-.23-.1-.38-.15-.34-.3S126.89,102.1,127,102.09Zm.22-2.81c0,.14,0,.14.1.19a.31.31,0,0,0,0-.22l-.08,0A.07.07,0,0,0,127.18,99.28Zm28-7.55c-.14,0-.36,0-.38.28A.35.35,0,0,0,155.15,91.73Zm3.37,3c-.2.11-.3.34-.21.46a.19.19,0,0,0,.24.18.6.6,0,0,0,.06-.51C158.52,94.77,158.5,94.7,158.52,94.77Zm0,2.63c.05.27.17.54-.15.73C158.41,97.85,158.36,97.57,158.54,97.4Z" fill="#fdb3d4"/>
    <path d="M188,83.85,188,85.4v.85c0,.29.55.33-.41.93.16.11,0,.21,0,.21-.18.6,0,1.2-.17,1.87a5.64,5.64,0,0,0-.13,1.73c0,.07-.05.15-.16.31s-.38.28-.23.75c0,.21-.19.11-.33.13s-1.31.23-1.41,0c1.26-.5,1.17-.63,1.06-.82s-.25-.6.23-.75a.17.17,0,0,0,.09-.3c-.17-.12-.34-.3-.55-.26.13.33.14.75-1,1.17-.68.18-.21,1.24-.35,1.69a.46.46,0,0,0,.07.41c0,.07.1.13.15.05s.44-.36.35-.49c-.15-.4,1.09-.68,1.36-.73a.68.68,0,0,0,.13.33c.17.19,0,.43,0,.65a21.35,21.35,0,0,1-1.39,3.08,1.49,1.49,0,0,1-.5.8c-.05.08-.18.17-.09.3.21.39-.14.8-.06,1.29s-.91.08-.53.59c.19.32-.05.57-.13.94a1.72,1.72,0,0,1-.57.81c-.19.11-.5.37-.22.75.15,0-.27.9-.33,1a8.81,8.81,0,0,1-.51,1.15c-.22.4-.69.55-.77.92s-.12.52-.3.69c-.07,0,0,.15,0,.36a1,1,0,0,1-.63.89,7.67,7.67,0,0,1-1.91-.38c.28,0,.41-.07.39-.21a.1.1,0,0,0,0-.14c-.16,0-.44-.06-.56.1s-.19.1-.23.32-.13,0-.2,0c-.38-.15-.44-.07-.59.31a.06.06,0,0,1-.05.08c-.13.09-.19.18,0,.21a.15.15,0,0,0,.27-.12c.1-.23.28-.4.54-.16.15,0,.24.17.42,0s1.26.28,1.44.11c.14,0,.23.1.2.32s-.36.42-.32.62-.38.28-.05.51a.3.3,0,0,1-.23.32,1.74,1.74,0,0,0-.78,1.28,3.7,3.7,0,0,1-1.14,1.61,1.72,1.72,0,0,0-.57.81,1.86,1.86,0,0,1-.47.94c-.59.31-.68,1-1.06,1.32,0,.08-.19.1-.26.12-.53-.62-2-1.09-2.19-.34a.57.57,0,0,1-.57.39c-.3-.09-.3-.09-.38.27l.14,0c.07,0,.19-.1.23.1s0,.21,0,.22l-.66.33a.07.07,0,0,0-.08-.06.07.07,0,0,0,.08.06c.12.26,0,.56.08.84l.1-.23c.21,0,.38-.28.55-.1a.26.26,0,0,1-.22.4c-.19.1-.25.18-.15.31s.21,0,.27,0,.26-.12.3-.34a3,3,0,0,0,0-1c0-.07,0-.2.1-.23s.22,0,.23.1c.17.54.22,0,.33-.13a3.14,3.14,0,0,1,1.83-.52c.14.4-1.1.19-1.14.41,0,.5-.37.7-.67,1-.13.45-.51.73-.67,1a9.21,9.21,0,0,1-1.33,1.37,3,3,0,0,1-2.56,1.23c-.6-.18-1-.11-1.45-.6s-1-.69-1.4-1.11a4.87,4.87,0,0,1-1.51-2.58c0-.22.16-.31.27-.48s-.12-.69,0-.92c-.09-.12-.12.1-.2,0s0-.21-.06-.35a3.54,3.54,0,0,1,0-1.07c-.1-.19-.19-.32-.45-.13a.38.38,0,0,1-.39-.22,1.17,1.17,0,0,0-.7-.37,4.62,4.62,0,0,1-1-2.17L163,106c.29-1.19.5-2.43.81-3.55s.49-2.5,1-3.72a33.44,33.44,0,0,0,.84-3.35,31,31,0,0,1,1-3.37c.23-.68.54-1.38.72-2l.38-1.48c.35-1.27.56-2.52,1-3.73a6.62,6.62,0,0,1,.82-3c1.79-5.71,2-6.31,2.35-6.94.11-.59.36-1.21.49-1.72a6.59,6.59,0,0,1,1.36-2.8,1.64,1.64,0,0,1,.13-1.3l1.19-3.4c.41-.93.77-2.12,1.15-3.19a7.68,7.68,0,0,0,.72-1.61c.21-.39.27-.9.43-1.21a1.19,1.19,0,0,1,1.38-.6c.32.16.8.08,1.05.32a.36.36,0,0,1,.19.25.22.22,0,0,0,.24.17,1.13,1.13,0,0,1,1.29.49,2.44,2.44,0,0,1,.28,1.58,5.51,5.51,0,0,1-.51,1.16l-.83,1.35a2.83,2.83,0,0,1-.54,1c.15.48-.27.91-.45,1.5a14.44,14.44,0,0,1-.85,1.64l-.58,1.17a5.52,5.52,0,0,1-1,2.52c-.11.16,0,.27-.06.43-.63.89-.6,1.88-1,2.81l-2.65,7.28c-.18.6-.41,1.28-.66,1.89s-.26,1-.63,1.31c-.15.38.05.71-.08,1.16,0,.07,0,.13-.1.23a.63.63,0,0,0-.35.48c0,.22-.14.38-.49.44a.57.57,0,0,1,.2.75,2.11,2.11,0,0,1-.67,1c-.06.08-.12.16,0,.36a1,1,0,0,1-.08.79,1,1,0,0,0-.22.75c.09.13,0,.22-.08.37s-.35.42-.1.66c.08,0,0,.13,0,.21a8.24,8.24,0,0,0-.52,1.52.27.27,0,0,1-.16.31c-.15,0-.18-.19-.2-.32s-.06-.35.14-.45c.37-.28.18-.6.05-.93-.12.16-.24.25-.22.39-.07.43-.15.74-.7.47a.85.85,0,0,1,.16.9c0,.15-.08.37.15.47s.36,0,.33-.13.13-.09.2-.1a1,1,0,0,1,0,.64,5.6,5.6,0,0,1-.67,1c-.07,0-.19.18-.35.06a1,1,0,0,1-.11-.62c.13-.09.19-.17.26-.18-.1-.13-.44-.07-.44-.5a1.07,1.07,0,0,0-.09.73c-.25.18-.31.27,0,.36.07,0,.16.11.12.26-.19.17-.21,0-.29,0s-.1-.13-.23-.1,0,.2,0,.2c0,.21,0,.43,0,.57s.08,0,.15,0c.24.17.35.37.74.16.07,0,.1.19.06.34,0,.36-.17.67,0,1,.08.06-.12.16,0,.29.29,0,.2-.1.26-.19s.28-.4.58-.31c.15,0,.18-.17.24-.25s.06.34.36,0,.48-.93.7-1.25l.38-.28c.27-.12.37-.35.09-.73-.15,0,0-.14,0-.15.3.09-.2-1.17,0-1.28.53-.59,1.84-2.45,2-2.69.38-.64,1.62-.49,1.77-1.23,0-.15.18-.6.55-.52.16.11.42-.07.39-.21s-.41.07-.31-.16a.45.45,0,0,1,.32-.2c.22,0-.86-.49-1-.74s.21-.39.48-.51,1.41-2.52,1.66-2.7.63,0,.86-.37c.55-.94,1.79-1.16,2.46-2.2.06-.08.17-.24.08-.37s-.22,0-.41.07-.24.26-.34.13,0-.29.08-.37a1.57,1.57,0,0,0,.66-1.11,1.74,1.74,0,0,1,.54-.59c.44-.35.35-.84.65-1.17a.89.89,0,0,1,.87-.3,8.78,8.78,0,0,1,1.79.48c.08,0,.29,0,.63,0,1.3-.3,1.69-.08,1.94.09a6.19,6.19,0,0,1,.75,1.5A3.81,3.81,0,0,1,188,83.85ZM163.63,107.1c-.13.1-.19.18,0,.58A2.52,2.52,0,0,0,163.63,107.1Zm.79-2.83a4,4,0,0,0-.71,2.46C164.06,105.89,164.11,105,164.42,104.27Zm-.07-.35c.22-.39.5-.86.3-1.19A1.32,1.32,0,0,0,164.35,103.92Zm.45.92c.07,0,.12-.09,0-.29-.06.08-.18.18-.17.24S164.73,104.85,164.8,104.84Zm0-2.49c.52-1.15.52-2.36,1.05-3.37,0-.14.09-.31.08-.37s0-.22-.18-.26a.2.2,0,0,0-.18.25A4.82,4.82,0,0,1,165,100a2.17,2.17,0,0,1-.28,1.26A3,3,0,0,0,164.79,102.35Zm.46,1c0-.07,0-.14-.09-.13a.17.17,0,0,0-.12.17,2.48,2.48,0,0,1,0,.71c-.12.09-.1.23.06.35-.08-.06,0-.21-.06-.35A2.91,2.91,0,0,0,165.25,103.34Zm.28,9.83c-.09-.13-.16-.12-.22,0-.23.33-.08.37,0,.72C165.52,113.52,165.64,113.36,165.53,113.17ZM166,98.24c.17-.24.15-.38,0-.78C165.9,97.69,165.57,97.81,166,98.24Zm0,1.92c-.15,0-.07,0-.06.08s0,.21.1.2.07,0,0-.15S166.05,100.15,166,100.16Zm1-5.43a24.82,24.82,0,0,0,.85-2.85c.05-.15,0-.21-.11-.26s-.21,0-.2.11c0,.28-.26.54-.28.83a9.22,9.22,0,0,0-.5,2.43c0,.07,0,.22-.11.23-.26.11-.22.32-.33.55a3.19,3.19,0,0,0-.31,1C166.12,97.72,165.86,97.41,167,94.73Zm-.43,6.19c.09,0,.14,0,.13-.1.15-.38.06-.86.3-1.12l0-.13a.2.2,0,0,0-.26.11.47.47,0,0,1-.44.36C166.61,100.12,166.42,100.65,166.53,100.92ZM183,82.16a3.82,3.82,0,0,0-.7.47A19.61,19.61,0,0,0,179.72,86c-.17.24-.21.39-.41.49a2.2,2.2,0,0,0-.88.65,7.71,7.71,0,0,1-1.23,1.92c.76-.91,1-1,1-.81s-.18.17-1.15,1.55c-.33.13-.53.23-.5.37l-.34.91a6,6,0,0,1-1.27,2.14c-.26.12-.59.25-.46.58,0,.07,0,.07-.05.15L174,95a7.22,7.22,0,0,0-1.12,1.76c-.42.85-1,1.52-1.37,2.36-.39,1-1.13,1.69-1.52,2.68a19.47,19.47,0,0,1-1,1.81,8.49,8.49,0,0,1-.39,1c-.58.81-.91,1.72-1.36,2.44a3.94,3.94,0,0,0-.84,2.13.74.74,0,0,1-.12.52.29.29,0,0,0,.06.34c.21,0,.31.16.21.39,0,.07-.11.16-.16.32.21,0,.27.3.23.52a1.07,1.07,0,0,0,.09.91l.53,2.25a6.76,6.76,0,0,1,.21,1.6c.08.49.35.8.66.53a4.26,4.26,0,0,0,2.16-1.87,1.66,1.66,0,0,1,.62-.53.63.63,0,0,0,.21-.39c.31-.7.87-1.15,1.13-1.69.12-.16.39-.21.5-.44.21-.82.72-1.12,1.12-1.69a19.54,19.54,0,0,1,1.71-2.85,10.53,10.53,0,0,0,.79-1.63,18.44,18.44,0,0,0,1.43-2.81c.41-.92,1.05-1.74,1.49-2.88.59-1.53,2-4.76,2.78-6.52a.31.31,0,0,1,.4-.14c0,.13.23.1.44.06s.13,0,.18-.17a.22.22,0,0,0-.09-.13.13.13,0,0,0-.21,0c-.13.09-.24.25-.32.2s.24-.26.18-.6c-.07,0-.07,0-.11.16s-.08.37-.25.25-.14-.4,0-.56c.23-.33.24-.68.54-1s0-.71,0-1.07a1.17,1.17,0,0,1,.2-.53c.12-.09.15-.31.18-.6a6.79,6.79,0,0,0,.07-1.22c.14-.81.21-1.67.28-2.46,0-1-.13-2-.07-2.91C183.49,82.28,183.23,82,183,82.16Zm-16.21,32.36a.14.14,0,0,0-.16-.11.15.15,0,0,0-.12.16c0,.13.1.12.18.18S166.78,114.66,166.76,114.52Zm.42-17.27c-.14,0-.46-.2-.39.21C166.85,97.38,167.05,97.34,167.18,97.25Zm.13,3.6c.13,0,.12-.09.11-.16s0-.27-.19-.25a.31.31,0,0,0-.16.31C167.09,100.82,167.24,100.87,167.31,100.85Zm.12-4.64c-.17-.11-.06-.34-.23-.46C167.24,96,167.07,96.21,167.43,96.21Zm-.18,3.52c.1.12.14.4.29.44s.22-.39.2-.53,0-.07,0-.14A.29.29,0,0,0,167.25,99.73Zm.38-1.49c0-.14-.11-.27-.24-.17s-.11.16,0,.22.22,0,.34-.06,0,.07.08,0l-.08,0Zm-.29,6.51c.08-.36.27-.47.35-.84A1,1,0,0,0,167.34,104.75Zm.29-10.21a.43.43,0,0,0-.13.45A.49.49,0,0,0,167.63,94.54Zm.22,4.51-.11-.62A.43.43,0,0,0,167.85,99.05Zm-.11-7.58c.19-.53.45-1.07.66-1.53.09-.3,0-.57.07-.8.27-.54.38-1.13.7-1.75,0-.15.1-.23,0-.28s-.22,0-.34.13a4.3,4.3,0,0,0-.38,1.49,18.35,18.35,0,0,0-.54,1.8C167.85,90.88,167.68,91.12,167.74,91.47Zm1,4.31c0-.21-.2-.32-.25-.24s-.2.11-.16.31.11.27.24.17S168.71,95.85,168.7,95.78Zm-.06,1.72c.09.12,0,.2-.16.31C168.45,97.6,168.5,97.52,168.64,97.5Zm.12-3.86c0-.07-.15,0-.22,0s-.06.08,0,.15,0,.07.08,0S168.77,93.71,168.76,93.64Zm.47-3.42c-.3-.09-.37-.08-.42.43C169,90.47,169,90.32,169.23,90.22Zm-.3-3.36c.08.06.14,0,.21,0a4.38,4.38,0,0,0,.44-1.14,1,1,0,0,0,.16-.31c0-.07-.08-.06-.15-.05s-.13.1-.17.25c-.14.45-.31.69-.44,1.14C168.92,86.79,168.92,86.79,168.93,86.86ZM169.3,89c0-.15.17-.25.15-.38s-.08-.06-.15-.05S169.19,88.73,169.3,89Zm3.87,1.81c.14.41-.12.52-.3.77l-1.8,2.72c0,.15-.17.25,0,.51a.15.15,0,0,1-.11.16c-.61.18-.72.77-.95,1.09a1,1,0,0,1-.39.64c-.06.08-.11.16-.2.1-.24-.17,0-.28,0-.36a6.55,6.55,0,0,0,1.06-1.67c-.17-.19.09-.3.22-.39a.08.08,0,0,1,.06-.09,12.28,12.28,0,0,1,1.13-1.68c.12-.1.17-.25.3-.27s.13-.09.12-.16c-.1-.55.6-.6.58-1.17.27-.05.13-.45.4-.56s.36-.35.48-.51c-.08-.06-.14,0-.15,0v-.07a.28.28,0,0,1,.15.05c.2,0,0-.21.13-.45.31.16.34.29.15.47-.39.21-.36.77-.77.84A.07.07,0,0,0,173.17,90.81Zm-3.11.54c0-.07,0-.14-.17-.18l-.06.08c-.18.17-.15.31-.36.35s-.13.09-.1.23.11.26.25.24S170.17,91.55,170.06,91.35Zm-.54-6.44a.62.62,0,0,0,.1.19c.06-.08,0-.21.17-.24s-.16-.11-.22,0Zm.38-.28c.1-.23-.05-.27-.11-.62C169.6,84.18,169.7,84.31,169.9,84.63Zm-.17-1,.14,0c.28-.4.35-.84.68-1.39,0-.09,0-.15-.11-.2l-.26.12C169.89,82.57,170.07,83.18,169.73,83.67Zm.92,5.73c0-.07,0-.2-.09-.12-.21,0-.16.31-.15.38v.07c-.3-.09-.32.2-.51.3.34-.06.34-.06.51-.3C170.49,89.71,170.63,89.69,170.65,89.4Zm-.51-.05c.07,0,.13-.09.19-.18s-.08,0-.15,0S170.05,89.22,170.14,89.35Zm.32-1a.1.1,0,0,0-.14,0c0,.08,0,.08,0,.15a.07.07,0,0,0,.08.06C170.41,88.45,170.47,88.37,170.46,88.3Zm1-1.59c-.09-.13-.17-.19-.23-.11a.92.92,0,0,1-.65.33,1.84,1.84,0,0,1,.63.39.26.26,0,0,0,.32-.2C171.66,87,171.62,86.82,171.46,86.71Zm-.64,0c.2,0,.1-.23.16-.31s0-.27-.11-.19-.24.25-.21.39S170.74,86.62,170.82,86.67Zm.37.93c0-.06,0-.2-.09-.12s-.07.44-.18.6.08.06.15,0C171.33,88,171.16,87.82,171.19,87.6Zm.29,28.73c-.12.16-.39.21-.34.49-.14,0,0,.06.08.05S171.53,116.61,171.48,116.33Zm0-30.61c-.23-.11-.37-.08-.34.06s.3.09.59.11c0,0,0-.07-.08-.06S171.45,85.79,171.43,85.72Zm9.72,11.39.48-.94c1.17-1.84.88-2.28.61-2.59a1.74,1.74,0,0,0-.17,1,5.58,5.58,0,0,1-1,1.75c-.13.09-.12.16-.09.3s0,.28,0,.35a3,3,0,0,0-.46,1.43l-.12.17c-.35,0-.33.12-.39.2-.28.41,0,1-.28,1.26a1.11,1.11,0,0,0-.24.26c-.5,1.22-.06,2.49-1.46,3a18.18,18.18,0,0,1-.62,1.74,3.28,3.28,0,0,0-.71,1.26,10.58,10.58,0,0,1-.92,1.65,13.44,13.44,0,0,0-1.29,2c-.47.58-.75,1.41-1.22,2a2.71,2.71,0,0,0-.84,2.13c.14,0,.25-.18.37-.34.23-.33.25-.61.5-.8.44-.36.58-1.17,1.23-1.49a.07.07,0,0,0,.06-.08c.09-.73.15-.81.87-.72.08,0,.22,0,.18-.18s-.16-.11-.23-.1c-.43-.07-.48-.34-.1-.62a.66.66,0,0,0,.31-.27c.18-.6,1.17-.63,1.51-1.11s0-1.5.36-2a3.35,3.35,0,0,1,1.23-1.56l.07,0c.06,0,.05-.08.05-.08,1,.11,1.14-.41,1.4-.52.07,0,.06-.09,0-.22l-.08-.06a.25.25,0,0,0-.23.32c0,.22-.08.37-.83.15a1.5,1.5,0,0,0,.46-.65c.38-1.06.14-2.44.6-3.51A15.53,15.53,0,0,0,181.15,97.11ZM173,74.51c.09-.3.4-.57.39-1.06A.77.77,0,0,0,173,74.51Zm2.37,37.88c0-.07,0-.15,0-.2s-.21,0-.27.11c-.09.3-.88.23-1.06.4l-.63.89c-.14,0-.13.09-.12.16l0,.14a.48.48,0,0,1,.19-.1C173.85,113.22,175.13,113.21,175.34,112.39Zm-1.9-39.31c.29-.34.72-.77.7-1.26C173.93,72.21,173.42,72.58,173.44,73.08Zm2.33,40.52c-.1-.13-.16,0-.21,0s-.22,0-1.05-.31a.25.25,0,0,0-.32.2.12.12,0,0,0,0,.2c.12.27,1.3.49,1.4.26S175.86,113.72,175.77,113.6Zm-1.39-24.84.07.41C174.15,89.08,174.14,89,174.38,88.76ZM179,83.12l-.55.53c-.41.49-.79,1.13-2.09,3.06a24.18,24.18,0,0,1-1.65,2c0,.07,0,0-.06.08a1,1,0,0,1,.62-1c.22-.39.59-.67.65-1.18,0-.15.09-.3.43-.36l1-1.45c-.07-.42.26-.55.38-.71a8.76,8.76,0,0,1,1.13-1.26c.07,0,.13,0,.15,0S179.06,83,179,83.12Zm-4,28.27c.78.44.07,0,0-.08a.21.21,0,0,0-.09-.12c-.07,0-.07,0-.13.09C174.89,111.41,174.89,111.41,175,111.39Zm1,.83c-.14,0-.11.16-.1.23s-.17.24-.14.45a.46.46,0,0,0,.24.52Zm2.54-7.12c-.35.06-.35.48-.52.73a.17.17,0,0,0,.12.26c.09.13.21,0,.26-.12S178.31,105.34,178.49,105.1Zm.29-.76a.61.61,0,0,0,.3.09,3.32,3.32,0,0,1-.42.43c-.07,0-.09-.06-.1-.13S178.72,104.42,178.78,104.34Zm-.19-17.94c0,.06.08,0,.14,0s.14,0,.13-.09-.16-.12-.16-.12A.15.15,0,0,0,178.59,86.4ZM179,84a.24.24,0,0,1,0-.15.57.57,0,0,1,.66-.33.84.84,0,0,1-.48.51C179.19,84.16,179.05,84.18,179,84Zm1.73,18.6c-.08-.06-.14,0-.13.09-.08.37-.39.63-.46,1a1.61,1.61,0,0,0,.64-.82C180.84,102.7,180.83,102.63,180.75,102.58Zm-.08-19.74c.22,0,.19-.11.24-.26C180.77,82.61,180.7,82.62,180.67,82.84Zm.79,15.63A1.68,1.68,0,0,0,181,99.9,13.92,13.92,0,0,0,181.46,98.47Zm.62-1.31s0-.22-.11-.27l0-.07a10.21,10.21,0,0,1-.6,1c-.06.08-.17.25,0,.36a.4.4,0,0,0,.46-.22C181.82,97.7,181.83,97.34,182.08,97.16Zm1.75-4.28c.06-.08,0-.22,0-.21s-.3-.09-.33.13a1.4,1.4,0,0,0-.2.46c0,.29-.13.52-.48.51.09.12.23.1.19.32a14.41,14.41,0,0,1-1,2.6l.07,0a2.41,2.41,0,0,0,1.23-2.77.38.38,0,0,1,.08-.3C183.7,93.4,183.71,93,183.83,92.88Zm-.4,4.68a6.49,6.49,0,0,0-1.26.08c-.14,0-.12.16-.09.3s0,.28.18.25S183.46,97.7,183.43,97.56Zm-.6-5.51c-.08,0-.13,0-.26.12.15,0,.23.1.36,0S182.9,92,182.83,92.05Zm2.26,2a5.71,5.71,0,0,0-1.1.19c-.07,0-.07,0-.06.08A6.73,6.73,0,0,0,185.09,94Zm-.37-.51c1,.26.8.5,1.2.36.08.06.16.12.2,0s-.13,0-.2,0S185.86,93.52,184.72,93.5Zm1.91-3.74c-.43,0-.14-.4-.23-.53a.52.52,0,0,0-.19.6C186.31,90,186.5,89.86,186.63,89.76Z" fill="#fdb3d4"/>
    <path d="M208.77,110.94c-.25-.17-.51-.48-.76-.65s-.29-.45-.51-.48-.38-.15-.41-.36c.07-.37-.11-.62-.18-1a1.34,1.34,0,0,1,.06-.87c.18-.17.12-.51.09-.72.26-1.75.24-3.52.53-5.14.24-1.46.46-3.06.83-4.62.08-.79.37-1.55.52-2.36a8.94,8.94,0,0,1,.3-1.54,1.58,1.58,0,0,0-.6,1q.24.18,0,.21c-.48.08-.55.52-.54.95-.13.09-.11.23-.16.31a.34.34,0,0,0-.29.4,4.27,4.27,0,0,1-1.26,2.14l-.15.81a29.88,29.88,0,0,0-2,3l-.82,1.42-1.87,2.74a16.17,16.17,0,0,1-1.63,2.06,16.72,16.72,0,0,1-2.29,2.38,10.41,10.41,0,0,1-2.46,1.35,2.07,2.07,0,0,1-2-.08l-.2,0a.72.72,0,0,1-.93.37,1,1,0,0,1-1-.75,2.24,2.24,0,0,1-.06-1.2,3.36,3.36,0,0,0-.13-.76,4.7,4.7,0,0,1-.24-2.58c.12-1,.31-1.91.42-2.92a31.15,31.15,0,0,1,.77-3.75c.38-1.49,1-3,1.44-4.44.3-.7.35-1.63.68-2.18.47-1,.89-1.86,1.38-2.73a17.9,17.9,0,0,1,1.55-3.32,22.45,22.45,0,0,1,1.94-3.61c.81-1.06,1.48-2.1,2.22-3.15a17.32,17.32,0,0,1,3.42-3.23,12.55,12.55,0,0,1,5.12-2,24.09,24.09,0,0,1,3.81-.16,9.67,9.67,0,0,0,1.76.33c.35-.06.5.41.88.56a3,3,0,0,0,1.58.51l1,.19c.14,0,.23.1.37.08.69-.12.91.34,1.07.88a1.4,1.4,0,0,1-.18,1.38A6.39,6.39,0,0,0,218.54,82c-.14.45-.7.91-.82,1.43a3.88,3.88,0,0,1-.22,1.17,8,8,0,0,0-.27,1.33c-.26,1-.79,1.62-1.07,2.45-.95,2.73-1.27,2.5-3.56,9-.17.25,0,.5-.08.73a10.17,10.17,0,0,0-.49,2.5c-.14.45-.51.8-.18,1.45,0,0-.11.16-.18.18s-.13.09-.1.23c.18.25.46.63-.06.93l.05.27a1.11,1.11,0,0,1,0,1.08c-.4.56.09.9-.05,1.35-.13,0-.1.23-.13.45-.14,0-.13.1-.13.1.43.42.16.89.38,1.35l.68-1c.69-1,1.17-1.91,1.91-3a40.66,40.66,0,0,0,2.46-4.26.32.32,0,0,1,.29-.34c.07,0,.07,0,.05-.15a8.76,8.76,0,0,1,1.11-2.18c.38-.7.77-1.34,1.09-2,.15-.31.47-.51.63-.82.26.24.26.24.38-.28a1.24,1.24,0,0,1-.38.28,6.51,6.51,0,0,1,.74-1.91,7.72,7.72,0,0,0,.82-1.84,5.14,5.14,0,0,1,.69-1.76,5.11,5.11,0,0,1,.5-1.22c0,.28.25.24.48.34-.25.19-.23.33-.18.6a3.14,3.14,0,0,1-.3.69,7.86,7.86,0,0,0-.67,2.32c-.06.44-.47.58-.6,1l-.21.46a.66.66,0,0,1-.3.69.15.15,0,0,0-.12.17c.1.55-.35.84-.48,1.29-.17.24-.35.48.25,1-.66-.1-.86,0-.79.42,0,.22-.24.26-.34.48.58,0,.25.18.21.4-.6,1-1,2.15-1.54,3-.69,1-.91,2.15-1.55,3,0,.22.07.42,0,.56a7.4,7.4,0,0,1-1,1.52,6.64,6.64,0,0,0-.55,1,14.34,14.34,0,0,1-1.72,1.93c-.41.5-.88,1.07-1.22,1.56s-.74.7-1.09,1.11a.66.66,0,0,1-.67.26Zm-12.56-1.52a19.17,19.17,0,0,0,2.63-2.87l2.54-3.78c.52-1.09,1.36-2,2-3.12a19.2,19.2,0,0,0,1.84-3.31c.13-.09.17-.24.38-.27s.2-.11.16-.32,0-.13.09-.3c.51-.72.77-1.69,1.46-2.24,0-.15.17-.24.15-.38a.69.69,0,0,1,.4-.57,2.21,2.21,0,0,0,.6-1,1.06,1.06,0,0,1,.32-.63.87.87,0,0,0,.36-.77,3.75,3.75,0,0,1,.33-.56,6.59,6.59,0,0,0,.79-1.2,16.34,16.34,0,0,0,.94-2.36c.28-.83.48-1.72.76-2.55a1.67,1.67,0,0,0,.26-1.4c-.08,0,.13-.09.1-.23.27-.11.33-.55.56-.87.34-.49.32-1,.71-1.62a8.75,8.75,0,0,0,1-1.8c0-.22.17-.24-.06-.35-.62-.32-1.07,0-1.49,0-.62.11-1.75.58-1.69.93,0,.56-.5.8-.74,1a5.1,5.1,0,0,0-1.88,1.46,18.45,18.45,0,0,0-3.43,3.58A19.5,19.5,0,0,0,203,87.29c0,.07-.12.09-.1.23a22,22,0,0,0-2,3.48c-.33.55-.56,1.3-.88,1.92a26,26,0,0,0-1.41,3,20.51,20.51,0,0,0-.68,2.6,28.84,28.84,0,0,0-2,6.74,2.55,2.55,0,0,1-.27.9,2.23,2.23,0,0,0-.43,1.21,11.67,11.67,0,0,1-.24,2.31l0,.21c-.06.44.1.55.34.3A8.09,8.09,0,0,0,196.21,109.42Zm26.33-21.9c0-.21.3-.33.26-.54s.18-.24.19-.18c.06.35.3.52.42.78A3,3,0,0,1,222.54,87.52Zm4.77,40.67a4,4,0,0,1-1.63-1.21,8.36,8.36,0,0,1-1-1.74c0-.07-.2-.32,0-.5,0,0,.13-.09,0-.07-.38-.15-.45-.56-.51-.9a6.63,6.63,0,0,1-.6-2.24,3,3,0,0,0-.19-1.11,30.48,30.48,0,0,1,0-6.82c.1-1.51.18-3.09.42-4.55.14-.88.12-1.8.28-2.54.25-1,.29-2,.55-2.93.1-.24.07-.44.28-.48.24-.25,0-.49,0-.63.27-.9.45-1.93.79-2.84.23-.68.36-1.2.66-1.89a3.73,3.73,0,0,0,.24-1.11c.08-.72.5-1.22.58-1.94a7.89,7.89,0,0,0,.36-1.2c.34-.91.6-1.88,1-2.81.61-1.81,1.51-3.6,2.24-5.5a45,45,0,0,1,2.32-4.67c.31-.69.72-1.18,1-1.87.46-1,1.24-1.85,1.72-2.78a8.89,8.89,0,0,1,.74-1.48c0-.22-.18-.18-.27-.31a7.44,7.44,0,0,0-3.41.81,10.62,10.62,0,0,0-3,2.43c-.2.11-.27.12,0,.29.1.19,0,.21-.07.44a6,6,0,0,1-2.47,1.35c-.2,0-.41.07-.45.22-.44.79-1,.17-1.45.25a1.07,1.07,0,0,0-.38-.15c-.21,0-.61.18-.73-.08a2.68,2.68,0,0,1-.63-1.17,14.08,14.08,0,0,1,.23-5.23,39.15,39.15,0,0,1,1.23-4.83,28.13,28.13,0,0,1,1.09-3.1,16.89,16.89,0,0,1,1.24-2.7c.14-.45.46-.22.69-.12.35-.06.63,0,.84-.08.83-.14,1.39.62,2.19.76a1.42,1.42,0,0,1,1,.6.63.63,0,0,1,.13.76c-.32.62-.61,1.39-.94,1.94s-.48,1.36-.81,1.92a2.07,2.07,0,0,0-.08.72c-.15.38-.56.46-.75.63s-.33.13-.29.34a1.13,1.13,0,0,1,.07.83c-.42,1.28-.82,2.63-1.15,4a2.52,2.52,0,0,0-.06.86.31.31,0,0,0,0,.22c-.58.32,0,1.14-.53,1.44,0,0,0,.22,0,.21s.15,0,.21,0a12.27,12.27,0,0,0,2.18-1.73,10.72,10.72,0,0,1,3.78-2c1-.31,2-.28,2.87-.64a1.46,1.46,0,0,1,1.21.43,18,18,0,0,1,1.54,1.51c.22,0,.33.23.49.34.46.21.61.68.65,1.31,0,1.06-.56,1.66-1,2.53A9.47,9.47,0,0,1,238.47,81a11.75,11.75,0,0,0-1.7,2.5A9.67,9.67,0,0,0,235.56,86a5.47,5.47,0,0,0-.35.84c-.27.47-.43.79-.89.58-.07,0-.21,0-.23.32.42,0,.52.13.15.48a12.9,12.9,0,0,0-.72,1.19c-.13,0-.12.09-.17.24a1.23,1.23,0,0,1-.67.61l.13,0c.11.2.46.13.31.51s.09.56-.23.75-.24.26-.34.49c-.4.57-.39,1.42-.94,1.94.1.62-.54,1-.36,1.62.05.28,0,.29-.21.47l-.69.12c.18.18.36,0,.54.19-.45.29,0,1.07-.75,1a.19.19,0,0,0,0,.21c.27.31.23.52-.1.65s-.39.21-.15.38c.14,0,.15.05.19.26s-.47.57-.4,1c0,.22-.39.21-.59.24a1.49,1.49,0,0,0-.41.15c.42-.08.65,0,.7.3s-.41.14-.44.36c.58.47.62.68-.22,1.18a.76.76,0,0,1,.21.81c-.17.24-.1.66-.27.9a1.26,1.26,0,0,1-.48.94c-.24.25-.53.59,0,1.07,0,.07,0,.42-.19.53s-.38.28-.1.65c.08.06-.1.24-.16.32-.32.19-.34.48-.07.79s-.06.51-.23.75-.13.45,0,.63a.23.23,0,0,1-.08.37c-.17.24-.35.42-.1.66s0,.21,0,.22a.9.9,0,0,0,0,1.07.46.46,0,0,1-.06.44c-.21,0-.27.11-.16.31s-.38.7-.54.59c-.13-.34-.22,0-.43,0s-.32-.23-.56-.4c0-.14,0-.15.18-.17.45.13.57-.39.83-.57,0,0,.12-.09,0-.21a.07.07,0,0,0-.08-.06c-.33.13-.35.06-.38-.14-.07-.42.1-.66-.15-.83a2.23,2.23,0,0,1-.09.66c0,.28-.18.6-.45.29s-.35.06-.55.09-.27.12-.45-.13-.08-.06-.21,0-.24.26-.13.45.18.26.29.45c-.08-.41.27-.47.46-.58s.19-.17.21,0c.24.17.35.36.73.08v.07c0,.14,0,.14,0,.15-.55.1-.88.65-1.41.46-.16-.11-.21,0-.33.13a.71.71,0,0,0,0,.22.3.3,0,0,0,.3.09c.42-.07.8-.35,1.27-.08a.14.14,0,0,1,.16.11c.15.48.49.35.76.3.6-.25.6-.25.64.39.07.41.19.67-.19.95-.07,0-.05.15-.05.15.33.23.18.61.25,1,0,.2-.51.72-.79.77s0-.2-.26-.31a.55.55,0,0,0-.05.58c.18.18.35-.06.56-.1.06,0,.18-.17.27,0s0,.21,0,.29c-.34.49-.05.93-.09,1.51,0,.29-.13.52-.15.81a1.75,1.75,0,0,0,.05,1.48.87.87,0,0,1-.6,1.1c.25.17.28.38.27.73-.12.1.05.28.28.38s.5.41.19.68-.13.45-.09.73.07.41.26.24.19-.11.23.1-.06.08-.2.1-.18.18-.39.21c.38.15.77.72.71.8-.09.3-.37.35-.71.41.27.31.27.74.74.58l.15.05c.14.83.6.6,1,.53a2.43,2.43,0,0,0,1.7-1.22,3.48,3.48,0,0,1,1.15-.76.23.23,0,0,1,.23.1c0,.07-.06.08-.19.1-.15.38-.16.74-.47,1-.56.45-.84,1.28-1.52,1.47A2.59,2.59,0,0,1,227.31,128.19ZM224,114.56c.1-.23.45-.65,0-.85-.16.31,0,.71-.61,1C223.73,114.88,224,114.84,224,114.56Zm.07,2a3,3,0,0,1,0-1.07c.06,0,0-.22-.05-.28s-.34.13-.38.28a.19.19,0,0,0-.09.3c.38.15.06.34,0,.63,0,0-.12.16-.1.23s.26.31.47.28S224.06,116.82,224,116.61Zm.9,2.75s.21,0,.2-.1a.39.39,0,0,0,.39-.21c-.35.06-.47-.2-.51-.48l.28,0a.43.43,0,0,0,.56-.09c.07,0,.2,0,0-.22l-.21,0c-.24.26-.48.09-.7,0-.38-.14-.41.07-.4.14.06.35-.31.27-.34.49.27,0,.41-.07.43.07a.47.47,0,0,1-.09.3c-.19.1-.27,0-.43-.07l0-.14c-.07,0-.3-.09-.27,0-.12.16-.16.31-.08.37s.16.11.21,0,.16.12.16.12C224.4,119.6,224.86,120.16,224.93,119.36Zm-1,1.46a1,1,0,0,1,.45.14C224.15,120.57,223.94,120.6,223.9,120.82Zm.4-.57c0-.13-.09-.12-.09-.12s-.21,0-.18.17.08.06.22,0A.07.07,0,0,0,224.3,120.25Zm.07-9a2.74,2.74,0,0,0,.15-1.59.43.43,0,0,0,0-.29l-.1-.12-.14,0c.2.32-.2.46-.14.81-.15.38.13.76,0,1.14-.12.09,0,.07.11.19S224.4,111.36,224.37,111.22Zm.63,11c-.41.14-.63.1-.64-.39-.38.28-.11.59,0,.7S224.82,122.44,225,122.2Zm.25-13.69c-.3-.09-.45-.14-.37-.51a1.68,1.68,0,0,0,0-.63c0-.27,0-.27-.22,0s.08.41,0,.43c-.38.27-.09.72-.46,1.07,0,0,.11.19.25.17A1.26,1.26,0,0,0,225.25,108.51Zm-.39,8.81c.2-.11.31-.27.54-.17s.28-.05.25-.19a.76.76,0,0,0-.14-.4c-.15,0-.2,0-.18.18-.13.09-.17.24-.33.13s-.36.41-.66.32l0,.21C224.62,117.57,224.69,117.56,224.86,117.32Zm1.06-1.25c-.08-.06-.27,0-.28-.38.14,0,0-.07-.08-.06s-.23-.1-.2,0a.37.37,0,0,1-.54.16.33.33,0,0,0-.15.38c0,.21-.19.11-.24.26.22,0,.38.57.73.09C225.33,116.31,225.79,116.52,225.92,116.07Zm-.45-1a.18.18,0,0,0,.17-.24c0-.21-.17-.19-.22,0s-.31.27-.34.06.06-.43.3-.26c.21,0,.24-.26.33-.56-.33.13-.58-.11-1,0-.07,0-.26.19-.18.24.49.35,0,.71.39,1A.55.55,0,0,1,225.47,115.08Zm-.67,6c.21,0,.24-.25.21-.46s.17-.24.06-.44l-.34.06c0,.15-.16.74-.06.87Zm.36.44c.13-.1.45.13.41-.14s-.3-.09-.45-.14h-.07c-.2.11-.42.07-.38.28s.22,0,.29,0ZM225,106.21c-.12.16-.1.23-.17.24s-.19.18-.11.23a.77.77,0,0,0,.58,0A3.45,3.45,0,0,1,225,106.21Zm.67,4.71a1,1,0,0,1,.41-1.34c-.43,0-.73-.09-1.05.1-.21,0-.27,0-.24.26s.05.27.26.24.11.26.14.4a1,1,0,0,0,0,.43.22.22,0,0,0,.24.17C225.48,111,225.68,111,225.67,110.92ZM225,124.39c0-.13,0-.13-.09-.12s-.14,0-.12.16,0,.21.18.18C225,124.47,225,124.46,225,124.39Zm.09-15.5c-.07,0-.19.17-.24.25C225.1,109.25,225.07,109.11,225.11,108.89Zm.1,14.12a.26.26,0,0,0-.24.26.35.35,0,0,0,.22,0C225.26,123.29,225.22,123.08,225.21,123Zm.09-15.08-.14,0c0,.15,0,.15,0,.2S225.32,108.07,225.3,107.93Zm.45,1c.12-.52.29-.41.55-.09.36-.42.24-1.11.89-1l.06-.08a.55.55,0,0,1-.1-.2.76.76,0,0,0-.92.44c0,.16,0,.23-.24.26s-.15,0-.18-.18a.53.53,0,0,0-.29-.45c-.09-.13-.1-.19-.29-.09s0,.21.12.33.26.24.09.49a1.3,1.3,0,0,0,0,.49c0,.14-.1.23.06.34S225.76,109,225.75,108.92Zm-.47,10.81c.14,0,.21,0,.12-.09a.14.14,0,0,0-.16-.12.81.81,0,0,0,0,.22Zm.14-12.74,0-.07a.78.78,0,0,0-.19.1.33.33,0,0,0,.19.26C225.46,107.26,225.45,107.2,225.42,107Zm1-1.73-.05-.28a.33.33,0,0,0,.08-.37l-.21,0c-.1.23.1.19.13.33-.27.12-.52-.12-.83.14a1.13,1.13,0,0,1,0-.93c0-.07.09-.3-.12-.26,0-.07-.13,0-.13,0a1.53,1.53,0,0,0,.25,1.45c.25.24.46.2.69.31S226.58,105.51,226.4,105.26Zm-.66,20c-.15,0-.24-.17-.43,0,.09,0,.25.17.32.15ZM227,106.5c.14,0,.12-.1.19-.11s0-.21-.1-.19a1.76,1.76,0,0,0-1.4.52l0,.14C226.23,106.78,226.59,106.36,227,106.5Zm.89-4.28c.07,0,.14,0,.18-.17-.13,0-.11.16-.18.17a1.35,1.35,0,0,1,0-.5c0-.06-.09,0-.25-.17s-.46-.2-.73-.15c-.21-.39-.58,0-.68-.24-.16,0-.26-.24-.22,0s-.37.35-.27.54.18.18.25.17c.31-.27.61-.18,1-.17a.61.61,0,0,0,.69-.12c0,.21,0,.36,0,.57s-.09.3.05.27S227.82,102.38,227.93,102.22Zm-1.77,2.08-.15,0c-.21,0-.17.24-.14.45C226.08,104.67,226.21,104.58,226.16,104.3Zm1,2.68c-.34-.3-.7,0-1.05.11-.07,0-.2,0-.17.24s.15,0,.25.17C226.6,107.64,226.84,107,227.12,107Zm-1.07,7.79c0-.07-.15,0-.13,0a.27.27,0,0,0,.26.31C226.11,115.11,226.15,114.89,226.05,114.77Zm.11-4.71c0-.07-.08-.06-.07,0-.2,0-.1.23-.08.37C226.2,110.26,226.34,110.24,226.16,110.06Zm0,15.27-.16-.11-.05.15a.06.06,0,0,0,.08,0S226.19,125.4,226.18,125.33Zm0-22-.23.75C226.34,103.7,226.32,103.57,226.2,103.3Zm.14,10.63-.14,0c-.07,0-.2.1-.16.31C226.16,114.18,226.37,114.14,226.34,113.93Zm1.28-13.5c-.22,0-.32.19-.43,0s-.57,0-.85,0-.17.25-.1.24A.94.94,0,0,0,227.62,100.43Zm-.94-.48c.2-.11.49-.08.35-.49h.07c.13,0,0,.21.24.17.1-.23-.33-.65-.53-.62s-.25.26-.35.49-.16.31,0,.49C226.48,100,226.71,100.09,226.68,100Zm1.21,3.27a2.5,2.5,0,0,1-.76.13c-.07,0-.23-.1-.45-.13l-.26,1,.15,0C227,104.43,227.78,103.81,227.89,103.22ZM227,109c-.2,0-.34.06-.31.27,0,0,0,.14.16.11A.33.33,0,0,0,227,109Zm.13-6.63c.07,0,0-.14-.14,0-.27,0,.06.34-.11.58A.48.48,0,0,0,227.1,102.36Zm.21,2.45h.07c.12-.16,0-.14-.09-.13-.43,0-.29.41-.31.7.08,0,.15,0,.29,0C227.22,105.11,227.12,104.92,227.31,104.81Zm.68-7.57-.08-.06c-.2.1-.17.24-.27.47-.13-.33-.34-.3-.55-.26,0,.14.11.19.27.31.13.33.36.44.51,0A.62.62,0,0,0,228,97.24Zm.29,1.65c-.23-.1-.3-.09-.62.11A.92.92,0,0,0,228.28,98.89Zm0,.5c0-.14-.16-.12-.37-.08s-.18.17-.14.38.15,0,.15,0C228.12,99.63,228.19,99.62,228.29,99.39Zm.82-5.12s0-.15,0-.21-.17-.11-.21,0c-.21,0-.37-.08-.4.14s.2,0,.3.09C228.81,94.61,229,94.36,229.11,94.27Zm-.19,2.17c0-.07-.08-.06-.22,0s-.21,0-.17.25c0,.06,0,.2.24.17S229,96.64,228.92,96.44Zm0-1.79-.13,0c-.07,0-.07,0-.05.16a.06.06,0,0,0,.08,0C229,94.79,229,94.79,229,94.65Zm.68,1.45V96c-.17-.19-.24-.17-.33.13C229.46,96.27,229.53,96.26,229.64,96.1Zm.7-1.69s-.13,0-.15,0l-.12.09c0,.14,0,.14.16.11A.13.13,0,0,0,230.34,94.41Z" fill="#fdb3d4"/>
  </g>
  <path d="M50.5,167c33.63-22.44,74.3-39.22,115.5-34,10.29,1.26,20.21,4.13,29.95,7,18.34,5.15,40.6,13.55,57-.16,7.78-6.5,12-16.16,14.54-25.82a58.83,58.83,0,0,1-4.35,14.66c-10.5,22.93-31.51,24.39-53.44,18.87-16-3.82-31.61-9.57-47.93-11C122.36,132.81,84.44,148.14,50.5,167Z" fill="#fdb3d4"/>
  <line x1="87.51" y1="77.52" x2="101.6" y2="74.79" fill="none" stroke="#fdb3d4" stroke-miterlimit="10" stroke-width="3"/>
</svg>
